<svg xmlns="http://www.w3.org/2000/svg" width="960" height="540" viewBox="0 0 960 540" role="img">
<rect width="100%" height="100%" fill="#fff"/>
<text x="480.0" y="28" font-size="20" font-weight="700" text-anchor="middle">Joint Acceleration</text>
<line x1="72" y1="468" x2="770" y2="468" stroke="#222"/>
<line x1="72" y1="54" x2="72" y2="468" stroke="#222"/>
<text x="421.0" y="522" font-size="13" text-anchor="middle">t</text>
<text x="18" y="261.0" font-size="13" text-anchor="middle" transform="rotate(-90 18 261.0)">rad/s^2</text>
<line x1="68" y1="468.000" x2="72" y2="468.000" stroke="#222"/>
<text x="64" y="472.000" font-size="11" text-anchor="end">-26.9</text>
<line x1="72" y1="468.000" x2="80" y2="468.000" stroke="#ddd"/>
<line x1="68" y1="364.500" x2="72" y2="364.500" stroke="#222"/>
<text x="64" y="368.500" font-size="11" text-anchor="end">-12.4</text>
<line x1="72" y1="364.500" x2="80" y2="364.500" stroke="#ddd"/>
<line x1="68" y1="261.000" x2="72" y2="261.000" stroke="#222"/>
<text x="64" y="265.000" font-size="11" text-anchor="end">2.13</text>
<line x1="72" y1="261.000" x2="80" y2="261.000" stroke="#ddd"/>
<line x1="68" y1="157.500" x2="72" y2="157.500" stroke="#222"/>
<text x="64" y="161.500" font-size="11" text-anchor="end">16.6</text>
<line x1="72" y1="157.500" x2="80" y2="157.500" stroke="#ddd"/>
<line x1="68" y1="54.000" x2="72" y2="54.000" stroke="#222"/>
<text x="64" y="58.000" font-size="11" text-anchor="end">31.1</text>
<line x1="72" y1="54.000" x2="80" y2="54.000" stroke="#ddd"/>
<polyline points="120.138,248.002 148.206,262.412 159.832,277.669 168.753,292.570 176.274,305.939 182.900,316.688 188.890,323.886 194.399,326.810 199.526,324.991 205.485,318.245 210.107,305.105 214.532,287.315 218.815,266.792 223.002,245.810 227.135,226.720 231.250,211.659 235.386,202.287 239.580,199.582 243.875,203.713 248.312,211.473 252.901,221.427 257.647,232.854 262.552,245.085 267.618,257.527 272.849,269.669 278.244,281.096 283.806,291.481 289.532,300.589 295.419,307.571 301.443,313.667 307.574,319.079 313.777,323.989 320.017,328.545 326.254,332.841 332.451,336.904 338.571,340.702 344.580,344.114 350.451,346.034 356.170,346.407 361.727,344.937 367.114,341.321 372.328,335.268 377.364,326.524 382.222,314.893 386.901,300.273 391.404,282.683 395.739,253.109 399.946,223.418 404.064,196.195 408.129,173.770 412.172,157.980 416.227,149.987 420.324,150.171 424.499,158.106 428.789,172.617 433.230,191.375 437.828,209.772 442.582,227.304 447.487,243.601 452.537,258.420 457.725,271.619 463.040,283.136 468.470,292.971 474.001,301.164 479.622,307.961 485.330,312.732 491.127,315.430 497.015,316.083 502.996,314.806 509.071,311.773 515.242,307.216 521.512,301.406 527.881,294.647 534.343,289.094 540.849,283.371 547.340,277.194 553.757,270.220 560.046,262.063 566.159,252.317 572.055,240.579 577.704,226.485 583.085,209.763 588.201,191.753 593.117,178.453 597.900,171.605 602.608,172.239 607.293,180.543 612.007,195.833 616.803,216.616 621.739,240.760 626.884,265.739 632.316,283.879 638.099,299.030 644.313,310.578 651.070,318.135 658.543,321.551 667.026,320.919 677.089,316.567 690.203,309.028 721.862,299.016" fill="none" stroke="#2563eb" stroke-width="2.2"/>
<rect x="792.000" y="68.000" width="12" height="12" fill="#2563eb"/><text x="810.000" y="78.000" font-size="12">joint 1</text>
<polyline points="120.138,272.343 148.206,291.208 159.832,304.350 168.753,310.133 176.274,307.780 182.900,297.462 188.890,280.297 194.399,258.258 199.526,234.008 205.485,210.655 210.107,191.553 214.532,182.302 218.815,185.359 223.002,201.222 227.135,228.292 231.250,263.092 235.386,300.805 239.580,336.038 243.875,363.703 248.312,380.414 252.901,389.104 257.647,390.069 262.552,384.064 267.618,372.189 272.849,355.761 278.244,336.205 283.806,314.946 289.532,293.324 295.419,274.613 301.443,257.352 307.574,241.686 313.777,227.671 320.017,215.331 326.254,204.718 332.451,195.974 338.571,189.320 344.580,185.109 350.451,184.103 356.170,187.424 361.727,195.422 367.114,208.251 372.328,225.801 377.364,247.621 382.222,272.870 386.901,300.275 391.404,328.121 395.739,357.373 399.946,378.116 404.064,387.143 408.129,382.987 412.172,366.150 416.227,339.025 420.324,305.515 424.499,270.428 428.789,238.716 433.230,214.775 437.828,197.573 442.582,187.206 447.487,183.370 452.537,185.477 457.725,192.750 463.040,204.310 468.470,219.252 474.001,236.688 479.622,257.620 485.330,279.370 491.127,300.581 497.015,319.993 502.996,336.525 509.071,349.335 515.242,357.856 521.512,361.817 527.881,361.242 534.343,357.236 540.849,352.172 547.340,346.031 553.757,338.590 560.046,329.477 566.159,318.226 572.055,304.379 577.704,287.590 583.085,267.769 588.201,237.365 593.117,210.163 597.900,190.378 602.608,180.928 607.293,182.949 612.007,195.636 616.803,216.418 621.739,241.459 626.884,266.368 632.316,286.670 638.099,300.772 644.313,307.895 651.070,308.068 658.543,302.088 667.026,291.418 677.089,278.017 690.203,264.138 721.862,252.089" fill="none" stroke="#dc2626" stroke-width="2.2"/>
<rect x="792.000" y="90.000" width="12" height="12" fill="#dc2626"/><text x="810.000" y="100.000" font-size="12">joint 2</text>
<polyline points="120.138,254.866 148.206,266.728 159.832,282.225 168.753,300.207 176.274,319.275 182.900,337.884 188.890,354.455 194.399,367.487 199.526,375.674 205.485,378.003 210.107,369.424 214.532,351.991 218.815,327.292 223.002,297.810 227.135,266.601 231.250,236.892 235.386,211.670 239.580,193.298 243.875,183.227 248.312,185.874 252.901,192.474 257.647,202.095 262.552,213.805 267.618,226.716 272.849,240.021 278.244,253.019 283.806,265.132 289.532,275.912 295.419,285.125 301.443,292.778 307.574,298.997 313.777,303.892 320.017,307.536 326.254,309.943 332.451,311.045 338.571,310.707 344.580,308.704 350.451,303.971 356.170,296.751 361.727,286.882 367.114,274.281 372.328,258.974 377.364,241.127 382.222,221.078 386.901,199.362 391.404,176.722 395.739,154.673 399.946,139.608 404.064,133.396 408.129,136.961 412.172,150.165 416.227,171.815 420.324,199.806 424.499,231.370 428.789,263.405 433.230,284.793 437.828,302.438 442.582,316.277 447.487,326.411 452.537,333.068 457.725,336.557 463.040,337.235 468.470,335.474 474.001,331.641 479.622,326.423 485.330,319.232 491.127,310.597 497.015,301.076 502.996,291.243 509.071,281.641 515.242,272.764 521.512,265.034 527.881,258.787 534.343,253.674 540.849,249.443 547.340,245.971 553.757,243.266 560.046,241.486 566.159,240.950 572.055,242.151 577.704,245.751 583.085,252.565 588.201,270.512 593.117,292.259 597.900,315.392 602.608,337.171 607.293,354.917 612.007,366.396 616.803,370.151 621.739,365.728 626.884,353.766 632.316,338.174 638.099,320.764 644.313,302.883 651.070,285.851 658.543,270.863 667.026,258.911 677.089,250.714 690.203,246.680 721.862,246.873" fill="none" stroke="#16a34a" stroke-width="2.2"/>
<rect x="792.000" y="112.000" width="12" height="12" fill="#16a34a"/><text x="810.000" y="122.000" font-size="12">joint 3</text>
<polyline points="120.138,280.062 148.206,291.373 159.832,302.978 168.753,314.344 176.274,324.932 182.900,334.215 188.890,341.702 194.399,346.954 199.526,349.605 205.485,349.370 210.107,340.805 214.532,327.497 218.815,310.304 223.002,290.415 227.135,269.258 231.250,248.369 235.386,229.262 239.580,213.303 243.875,201.587 248.312,201.057 252.901,202.239 257.647,204.861 262.552,208.653 267.618,213.353 272.849,218.717 278.244,224.522 283.806,230.569 289.532,236.686 295.419,242.613 301.443,247.916 307.574,252.668 313.777,256.964 320.017,260.909 326.254,264.615 332.451,268.194 338.571,271.752 344.580,275.385 350.451,279.487 356.170,283.705 361.727,287.974 367.114,292.199 372.328,296.247 377.364,299.947 382.222,303.089 386.901,305.419 391.404,306.648 395.739,305.827 399.946,302.190 404.064,295.948 408.129,287.590 412.172,277.836 416.227,267.571 420.324,257.752 424.499,249.322 428.789,243.107 433.230,239.251 437.828,236.658 442.582,235.177 447.487,234.650 452.537,234.924 457.725,235.859 463.040,237.330 468.470,239.235 474.001,241.492 479.622,245.228 485.330,249.606 491.127,254.494 497.015,259.755 502.996,265.244 509.071,270.821 515.242,276.348 521.512,281.698 527.881,286.754 534.343,288.431 540.849,290.253 547.340,292.436 553.757,295.192 560.046,298.732 566.159,303.262 572.055,308.976 577.704,316.047 583.085,324.604 588.201,336.417 593.117,344.720 597.900,348.767 602.608,348.235 607.293,343.238 612.007,334.305 616.803,322.317 621.739,308.423 626.884,293.923 632.316,282.761 638.099,273.249 644.313,265.593 651.070,259.917 658.543,256.258 667.026,254.567 677.089,254.716 690.203,256.500 721.862,259.650" fill="none" stroke="#9333ea" stroke-width="2.2"/>
<rect x="792.000" y="134.000" width="12" height="12" fill="#9333ea"/><text x="810.000" y="144.000" font-size="12">joint 4</text>
<polyline points="120.138,266.090 148.206,277.884 159.832,283.161 168.753,281.176 176.274,272.380 182.900,258.378 188.890,241.750 194.399,225.749 199.526,213.913 205.485,209.626 210.107,218.165 214.532,239.822 218.815,273.113 223.002,314.209 227.135,357.522 231.250,396.650 235.386,425.510 239.580,439.448 243.875,436.127 248.312,421.917 252.901,399.883 257.647,372.312 262.552,341.642 267.618,310.251 272.849,280.283 278.244,253.516 283.806,231.289 289.532,214.460 295.419,204.838 301.443,199.720 307.574,198.623 313.777,201.085 320.017,206.690 326.254,215.083 332.451,225.953 338.571,238.954 344.580,253.683 350.451,269.850 356.170,286.278 361.727,301.595 367.114,314.239 372.328,322.541 377.364,324.833 382.222,319.596 386.901,305.642 391.404,282.307 395.739,248.433 399.946,209.314 404.064,170.480 408.129,137.872 412.172,116.808 416.227,111.042 420.324,122.069 424.499,148.821 428.789,187.787 433.230,223.339 437.828,258.959 442.582,292.426 447.487,321.998 452.537,346.438 457.725,364.996 463.040,377.358 468.470,383.572 474.001,383.978 479.622,379.246 485.330,368.736 491.127,353.682 497.015,335.568 502.996,316.030 509.071,296.676 515.242,278.979 521.512,264.165 527.881,253.134 534.343,247.426 540.849,244.980 547.340,245.690 553.757,249.660 560.046,257.180 566.159,268.666 572.055,284.558 577.704,305.162 583.085,330.466 588.201,355.576 593.117,375.745 597.900,386.489 602.608,384.754 607.293,369.609 612.007,342.525 616.803,307.184 621.739,268.848 626.884,233.394 632.316,210.666 638.099,196.565 644.313,191.907 651.070,196.413 658.543,208.791 667.026,226.918 677.089,248.118 690.203,269.488 721.862,288.247" fill="none" stroke="#ea580c" stroke-width="2.2"/>
<rect x="792.000" y="156.000" width="12" height="12" fill="#ea580c"/><text x="810.000" y="166.000" font-size="12">joint 5</text>
<polyline points="120.138,239.996 148.206,260.418 159.832,283.876 168.753,308.816 176.274,333.567 182.900,356.447 188.890,375.860 194.399,390.393 199.526,398.909 205.485,400.615 210.107,389.894 214.532,369.364 218.815,341.002 223.002,307.637 227.135,272.588 231.250,239.266 235.386,210.765 239.580,189.508 243.875,176.982 248.312,179.241 252.901,185.628 257.647,195.168 262.552,206.915 267.618,219.984 272.849,233.584 278.244,247.029 283.806,259.756 289.532,271.322 295.419,281.713 301.443,290.667 307.574,298.329 313.777,304.832 320.017,310.273 326.254,314.685 332.451,318.017 338.571,320.135 344.580,320.793 350.451,318.577 356.170,313.753 361.727,305.960 367.114,294.862 372.328,280.175 377.364,261.707 382.222,239.392 386.901,213.337 391.404,183.853 395.739,148.837 399.946,118.537 404.064,95.977 408.129,83.511 412.172,82.552 416.227,93.408 420.324,115.234 424.499,146.108 428.789,183.224 433.230,211.828 437.828,238.188 442.582,261.867 447.487,282.610 452.537,300.319 457.725,315.018 463.040,326.820 468.470,335.900 474.001,342.464 479.622,348.259 485.330,350.964 491.127,350.737 497.015,347.834 502.996,342.613 509.071,335.493 515.242,326.936 521.512,317.430 527.881,307.463 534.343,297.880 540.849,289.108 547.340,280.836 553.757,272.782 560.046,264.727 566.159,256.555 572.055,248.291 577.704,240.152 583.085,232.595 588.201,229.480 593.117,232.039 597.900,240.521 602.608,254.264 607.293,271.768 612.007,290.890 616.803,309.150 621.739,324.076 626.884,333.588 632.316,336.400 638.099,334.396 644.313,327.832 651.070,317.282 658.543,303.591 667.026,287.825 677.089,271.203 690.203,255.015 721.862,240.548" fill="none" stroke="#0891b2" stroke-width="2.2"/>
<rect x="792.000" y="178.000" width="12" height="12" fill="#0891b2"/><text x="810.000" y="188.000" font-size="12">joint 6</text>
</svg>
